<mxfile host="app.diagrams.net" agent="Mozilla/5.0 (Windows NT 10.0; Win64; x64; rv:130.0) Gecko/20100101 Firefox/130.0" version="24.7.14">
  <diagram name="Page-1" id="1VwgqNChuWMemx6qFAxK">
    <mxGraphModel dx="1434" dy="774" grid="1" gridSize="10" guides="1" tooltips="1" connect="1" arrows="1" fold="1" page="1" pageScale="1" pageWidth="827" pageHeight="1169" math="0" shadow="0">
      <root>
        <mxCell id="0" />
        <mxCell id="1" parent="0" />
        <mxCell id="gbquePx31MklGb_rPzh0-11" style="rounded=0;orthogonalLoop=1;jettySize=auto;html=1;exitX=1;exitY=0.25;exitDx=0;exitDy=0;exitPerimeter=0;entryX=0;entryY=0.5;entryDx=0;entryDy=0;edgeStyle=entityRelationEdgeStyle;startArrow=none;startFill=0;endArrow=none;endFill=0;" edge="1" parent="1" source="gbquePx31MklGb_rPzh0-1" target="gbquePx31MklGb_rPzh0-8">
          <mxGeometry relative="1" as="geometry" />
        </mxCell>
        <mxCell id="gbquePx31MklGb_rPzh0-1" value="Site Web Nodejs" style="sketch=0;points=[[0,0,0],[0.25,0,0],[0.5,0,0],[0.75,0,0],[1,0,0],[0,1,0],[0.25,1,0],[0.5,1,0],[0.75,1,0],[1,1,0],[0,0.25,0],[0,0.5,0],[0,0.75,0],[1,0.25,0],[1,0.5,0],[1,0.75,0]];outlineConnect=0;fontColor=#232F3E;fillColor=#01A88D;strokeColor=#ffffff;dashed=0;verticalLabelPosition=bottom;verticalAlign=top;align=center;html=1;fontSize=12;fontStyle=0;aspect=fixed;shape=mxgraph.aws4.resourceIcon;resIcon=mxgraph.aws4.desktop_and_app_streaming;" vertex="1" parent="1">
          <mxGeometry x="40" y="80" width="78" height="78" as="geometry" />
        </mxCell>
        <mxCell id="gbquePx31MklGb_rPzh0-37" style="rounded=0;orthogonalLoop=1;jettySize=auto;html=1;exitX=0.25;exitY=1;exitDx=0;exitDy=0;exitPerimeter=0;edgeStyle=orthogonalEdgeStyle;" edge="1" parent="1" source="gbquePx31MklGb_rPzh0-7" target="gbquePx31MklGb_rPzh0-31">
          <mxGeometry relative="1" as="geometry" />
        </mxCell>
        <mxCell id="gbquePx31MklGb_rPzh0-7" value="&lt;div&gt;API&lt;/div&gt;&lt;div&gt;&lt;br&gt;&lt;/div&gt;" style="sketch=0;points=[[0,0,0],[0.25,0,0],[0.5,0,0],[0.75,0,0],[1,0,0],[0,1,0],[0.25,1,0],[0.5,1,0],[0.75,1,0],[1,1,0],[0,0.25,0],[0,0.5,0],[0,0.75,0],[1,0.25,0],[1,0.5,0],[1,0.75,0]];outlineConnect=0;fontColor=#232F3E;fillColor=#C925D1;strokeColor=#ffffff;dashed=0;verticalLabelPosition=bottom;verticalAlign=top;align=center;html=1;fontSize=12;fontStyle=0;aspect=fixed;shape=mxgraph.aws4.resourceIcon;resIcon=mxgraph.aws4.cloud_control_api;" vertex="1" parent="1">
          <mxGeometry x="201" y="160" width="78" height="78" as="geometry" />
        </mxCell>
        <mxCell id="gbquePx31MklGb_rPzh0-8" value="" style="strokeColor=#dddddd;shadow=1;strokeWidth=1;rounded=1;absoluteArcSize=1;arcSize=2;" vertex="1" parent="1">
          <mxGeometry x="190" y="50" width="100" height="60" as="geometry" />
        </mxCell>
        <mxCell id="gbquePx31MklGb_rPzh0-9" value="Firebase" style="sketch=0;dashed=0;connectable=0;html=1;fillColor=#5184F3;strokeColor=none;shape=mxgraph.gcp2.firebase;part=1;labelPosition=right;verticalLabelPosition=middle;align=left;verticalAlign=middle;spacingLeft=5;fontColor=#999999;fontSize=12;" vertex="1" parent="gbquePx31MklGb_rPzh0-8">
          <mxGeometry width="32.4" height="45" relative="1" as="geometry">
            <mxPoint x="5" y="7" as="offset" />
          </mxGeometry>
        </mxCell>
        <mxCell id="gbquePx31MklGb_rPzh0-10" style="edgeStyle=entityRelationEdgeStyle;rounded=0;orthogonalLoop=1;jettySize=auto;html=1;exitX=1;exitY=0.75;exitDx=0;exitDy=0;exitPerimeter=0;entryX=0;entryY=0.5;entryDx=0;entryDy=0;entryPerimeter=0;endArrow=none;endFill=0;" edge="1" parent="1" source="gbquePx31MklGb_rPzh0-1" target="gbquePx31MklGb_rPzh0-7">
          <mxGeometry relative="1" as="geometry" />
        </mxCell>
        <mxCell id="gbquePx31MklGb_rPzh0-38" style="edgeStyle=orthogonalEdgeStyle;rounded=0;orthogonalLoop=1;jettySize=auto;html=1;exitX=0;exitY=0.5;exitDx=0;exitDy=0;exitPerimeter=0;" edge="1" parent="1" source="gbquePx31MklGb_rPzh0-18" target="gbquePx31MklGb_rPzh0-34">
          <mxGeometry relative="1" as="geometry" />
        </mxCell>
        <mxCell id="gbquePx31MklGb_rPzh0-18" value="&lt;div&gt;Application Web&lt;/div&gt;&lt;div&gt;Blazor&lt;br&gt;&lt;/div&gt;&lt;div&gt;Version installable&lt;br&gt; &lt;/div&gt;" style="sketch=0;points=[[0,0,0],[0.25,0,0],[0.5,0,0],[0.75,0,0],[1,0,0],[0,1,0],[0.25,1,0],[0.5,1,0],[0.75,1,0],[1,1,0],[0,0.25,0],[0,0.5,0],[0,0.75,0],[1,0.25,0],[1,0.5,0],[1,0.75,0]];outlineConnect=0;fontColor=#232F3E;fillColor=#E7157B;strokeColor=#ffffff;dashed=0;verticalLabelPosition=bottom;verticalAlign=top;align=center;html=1;fontSize=12;fontStyle=0;aspect=fixed;shape=mxgraph.aws4.resourceIcon;resIcon=mxgraph.aws4.application_integration;" vertex="1" parent="1">
          <mxGeometry x="360" y="238" width="78" height="78" as="geometry" />
        </mxCell>
        <mxCell id="gbquePx31MklGb_rPzh0-35" style="edgeStyle=orthogonalEdgeStyle;rounded=0;orthogonalLoop=1;jettySize=auto;html=1;exitX=1;exitY=0.25;exitDx=0;exitDy=0;exitPerimeter=0;" edge="1" parent="1" source="gbquePx31MklGb_rPzh0-19" target="gbquePx31MklGb_rPzh0-29">
          <mxGeometry relative="1" as="geometry">
            <Array as="points">
              <mxPoint x="760" y="258" />
              <mxPoint x="760" y="609" />
            </Array>
          </mxGeometry>
        </mxCell>
        <mxCell id="gbquePx31MklGb_rPzh0-19" value="&lt;div&gt;Application Web&lt;/div&gt;&lt;div&gt;Blazor&lt;br&gt;&lt;/div&gt;" style="sketch=0;points=[[0,0,0],[0.25,0,0],[0.5,0,0],[0.75,0,0],[1,0,0],[0,1,0],[0.25,1,0],[0.5,1,0],[0.75,1,0],[1,1,0],[0,0.25,0],[0,0.5,0],[0,0.75,0],[1,0.25,0],[1,0.5,0],[1,0.75,0]];outlineConnect=0;fontColor=#232F3E;fillColor=#EA6B66;strokeColor=#ffffff;dashed=0;verticalLabelPosition=bottom;verticalAlign=top;align=center;html=1;fontSize=12;fontStyle=0;aspect=fixed;shape=mxgraph.aws4.resourceIcon;resIcon=mxgraph.aws4.application_integration;" vertex="1" parent="1">
          <mxGeometry x="530" y="238" width="78" height="78" as="geometry" />
        </mxCell>
        <mxCell id="gbquePx31MklGb_rPzh0-20" style="edgeStyle=orthogonalEdgeStyle;rounded=0;orthogonalLoop=1;jettySize=auto;html=1;exitX=1;exitY=0.75;exitDx=0;exitDy=0;exitPerimeter=0;entryX=0.5;entryY=0;entryDx=0;entryDy=0;entryPerimeter=0;endArrow=classic;endFill=1;startArrow=classic;startFill=1;" edge="1" parent="1" source="gbquePx31MklGb_rPzh0-7" target="gbquePx31MklGb_rPzh0-18">
          <mxGeometry relative="1" as="geometry" />
        </mxCell>
        <mxCell id="gbquePx31MklGb_rPzh0-21" style="edgeStyle=orthogonalEdgeStyle;rounded=0;orthogonalLoop=1;jettySize=auto;html=1;exitX=1;exitY=0.25;exitDx=0;exitDy=0;exitPerimeter=0;entryX=0.5;entryY=0;entryDx=0;entryDy=0;entryPerimeter=0;startArrow=classic;startFill=1;" edge="1" parent="1" source="gbquePx31MklGb_rPzh0-7" target="gbquePx31MklGb_rPzh0-19">
          <mxGeometry relative="1" as="geometry" />
        </mxCell>
        <mxCell id="gbquePx31MklGb_rPzh0-22" value="&lt;div&gt;Base de données&amp;nbsp;&lt;/div&gt;&lt;div&gt;MaraiDB Mode en ligne&lt;br&gt;&lt;/div&gt;&lt;div&gt;&lt;br&gt;&lt;/div&gt;" style="sketch=0;points=[[0,0,0],[0.25,0,0],[0.5,0,0],[0.75,0,0],[1,0,0],[0,1,0],[0.25,1,0],[0.5,1,0],[0.75,1,0],[1,1,0],[0,0.25,0],[0,0.5,0],[0,0.75,0],[1,0.25,0],[1,0.5,0],[1,0.75,0]];outlineConnect=0;fontColor=#232F3E;fillColor=#C925D1;strokeColor=#ffffff;dashed=0;verticalLabelPosition=bottom;verticalAlign=top;align=center;html=1;fontSize=12;fontStyle=0;aspect=fixed;shape=mxgraph.aws4.resourceIcon;resIcon=mxgraph.aws4.neptune;" vertex="1" parent="1">
          <mxGeometry x="640" y="412" width="78" height="78" as="geometry" />
        </mxCell>
        <mxCell id="gbquePx31MklGb_rPzh0-23" value="&lt;div&gt;Base de donnés&amp;nbsp;&lt;/div&gt;&lt;div&gt;SQLite Mode hors ligne&lt;br&gt;&lt;/div&gt;&lt;div&gt;&lt;br&gt;&lt;/div&gt;" style="sketch=0;points=[[0,0,0],[0.25,0,0],[0.5,0,0],[0.75,0,0],[1,0,0],[0,1,0],[0.25,1,0],[0.5,1,0],[0.75,1,0],[1,1,0],[0,0.25,0],[0,0.5,0],[0,0.75,0],[1,0.25,0],[1,0.5,0],[1,0.75,0]];outlineConnect=0;fontColor=#232F3E;fillColor=#B9E0A5;strokeColor=#ffffff;dashed=0;verticalLabelPosition=bottom;verticalAlign=top;align=center;html=1;fontSize=12;fontStyle=0;aspect=fixed;shape=mxgraph.aws4.resourceIcon;resIcon=mxgraph.aws4.database;" vertex="1" parent="1">
          <mxGeometry x="360" y="412" width="78" height="78" as="geometry" />
        </mxCell>
        <mxCell id="gbquePx31MklGb_rPzh0-24" style="edgeStyle=orthogonalEdgeStyle;rounded=0;orthogonalLoop=1;jettySize=auto;html=1;exitX=0;exitY=0.75;exitDx=0;exitDy=0;exitPerimeter=0;entryX=0;entryY=0.25;entryDx=0;entryDy=0;entryPerimeter=0;" edge="1" parent="1" source="gbquePx31MklGb_rPzh0-18" target="gbquePx31MklGb_rPzh0-23">
          <mxGeometry relative="1" as="geometry" />
        </mxCell>
        <mxCell id="gbquePx31MklGb_rPzh0-25" style="edgeStyle=orthogonalEdgeStyle;rounded=0;orthogonalLoop=1;jettySize=auto;html=1;exitX=1;exitY=0.75;exitDx=0;exitDy=0;exitPerimeter=0;entryX=0;entryY=0.75;entryDx=0;entryDy=0;entryPerimeter=0;" edge="1" parent="1" source="gbquePx31MklGb_rPzh0-18" target="gbquePx31MklGb_rPzh0-22">
          <mxGeometry relative="1" as="geometry">
            <Array as="points">
              <mxPoint x="470" y="297" />
              <mxPoint x="470" y="471" />
            </Array>
          </mxGeometry>
        </mxCell>
        <mxCell id="gbquePx31MklGb_rPzh0-26" style="edgeStyle=orthogonalEdgeStyle;rounded=0;orthogonalLoop=1;jettySize=auto;html=1;exitX=1;exitY=0.75;exitDx=0;exitDy=0;exitPerimeter=0;entryX=0.5;entryY=0;entryDx=0;entryDy=0;entryPerimeter=0;" edge="1" parent="1" source="gbquePx31MklGb_rPzh0-19" target="gbquePx31MklGb_rPzh0-22">
          <mxGeometry relative="1" as="geometry" />
        </mxCell>
        <mxCell id="gbquePx31MklGb_rPzh0-28" value="Android et IOS" style="sketch=0;outlineConnect=0;fontColor=#232F3E;gradientColor=none;fillColor=#232F3D;strokeColor=none;dashed=0;verticalLabelPosition=bottom;verticalAlign=top;align=center;html=1;fontSize=12;fontStyle=0;aspect=fixed;pointerEvents=1;shape=mxgraph.aws4.mobile_client;" vertex="1" parent="1">
          <mxGeometry x="655.01" y="690" width="41" height="78" as="geometry" />
        </mxCell>
        <mxCell id="gbquePx31MklGb_rPzh0-29" value="PWA" style="sketch=0;outlineConnect=0;fontColor=#232F3E;gradientColor=none;fillColor=#232F3D;strokeColor=none;dashed=0;verticalLabelPosition=bottom;verticalAlign=top;align=center;html=1;fontSize=12;fontStyle=0;aspect=fixed;pointerEvents=1;shape=mxgraph.aws4.external_sdk;" vertex="1" parent="1">
          <mxGeometry x="645" y="570" width="61.03" height="70" as="geometry" />
        </mxCell>
        <mxCell id="gbquePx31MklGb_rPzh0-31" value="&lt;div&gt;Application Kotlin&lt;/div&gt;&lt;div&gt;WebView&lt;/div&gt;&lt;div&gt;&lt;br&gt;&lt;/div&gt;" style="sketch=0;outlineConnect=0;fontColor=#232F3E;gradientColor=none;fillColor=#232F3D;strokeColor=none;dashed=0;verticalLabelPosition=bottom;verticalAlign=top;align=center;html=1;fontSize=12;fontStyle=0;aspect=fixed;pointerEvents=1;shape=mxgraph.aws4.source_code;" vertex="1" parent="1">
          <mxGeometry x="217.35" y="578" width="45.31" height="62" as="geometry" />
        </mxCell>
        <mxCell id="gbquePx31MklGb_rPzh0-33" value="Android" style="sketch=0;outlineConnect=0;fontColor=#232F3E;gradientColor=none;fillColor=#232F3D;strokeColor=none;dashed=0;verticalLabelPosition=bottom;verticalAlign=top;align=center;html=1;fontSize=12;fontStyle=0;aspect=fixed;pointerEvents=1;shape=mxgraph.aws4.mobile_client;" vertex="1" parent="1">
          <mxGeometry x="219.5" y="690" width="41" height="78" as="geometry" />
        </mxCell>
        <mxCell id="gbquePx31MklGb_rPzh0-34" value="&lt;div&gt;PC&lt;/div&gt;&lt;div&gt;Windows, Linux, MacOS&lt;br&gt;&lt;/div&gt;" style="sketch=0;outlineConnect=0;fontColor=#232F3E;gradientColor=none;fillColor=#232F3D;strokeColor=none;dashed=0;verticalLabelPosition=bottom;verticalAlign=top;align=center;html=1;fontSize=12;fontStyle=0;aspect=fixed;pointerEvents=1;shape=mxgraph.aws4.client;" vertex="1" parent="1">
          <mxGeometry x="40" y="701" width="78" height="76" as="geometry" />
        </mxCell>
        <mxCell id="gbquePx31MklGb_rPzh0-39" value="" style="endArrow=none;html=1;rounded=0;" edge="1" parent="1" source="gbquePx31MklGb_rPzh0-28" target="gbquePx31MklGb_rPzh0-29">
          <mxGeometry width="50" height="50" relative="1" as="geometry">
            <mxPoint x="300" y="940" as="sourcePoint" />
            <mxPoint x="350" y="890" as="targetPoint" />
            <Array as="points">
              <mxPoint x="610" y="700" />
              <mxPoint x="610" y="640" />
            </Array>
          </mxGeometry>
        </mxCell>
        <mxCell id="gbquePx31MklGb_rPzh0-42" value="" style="endArrow=none;html=1;rounded=0;" edge="1" parent="1" source="gbquePx31MklGb_rPzh0-33" target="gbquePx31MklGb_rPzh0-31">
          <mxGeometry width="50" height="50" relative="1" as="geometry">
            <mxPoint x="240" y="880" as="sourcePoint" />
            <mxPoint x="290" y="830" as="targetPoint" />
            <Array as="points">
              <mxPoint x="310" y="700" />
              <mxPoint x="310" y="650" />
            </Array>
          </mxGeometry>
        </mxCell>
        <mxCell id="gbquePx31MklGb_rPzh0-47" style="edgeStyle=orthogonalEdgeStyle;rounded=0;orthogonalLoop=1;jettySize=auto;html=1;exitX=1;exitY=0.5;exitDx=0;exitDy=0;" edge="1" parent="1" source="gbquePx31MklGb_rPzh0-43" target="gbquePx31MklGb_rPzh0-45">
          <mxGeometry relative="1" as="geometry" />
        </mxCell>
        <mxCell id="gbquePx31MklGb_rPzh0-43" value="" style="shape=image;verticalLabelPosition=bottom;labelBackgroundColor=default;verticalAlign=top;aspect=fixed;imageAspect=0;image=data:image/png,iVBORw0KGgoAAAANSUhEUgAAAKoAAAA/CAYAAABw3VNyAAAT/ElEQVR4Xu1dB3QVVdc9CVWpSrEgoSNFBUFFmlSpIUgRBEFKQhIIhNBBEAgoKUASQQQ0dEjoJaFJb1IEpQUUlktBpQjSe/3+vW8yj3klIeW9kJd/zlpZmsnMnTvn7jlln3MHl/9BxBBDAxlcAy4GUDP4ChnTUxowgGoAwSk0YADVKZbJmKQBVAMDTqEBA6hOsUzGJA2gGhhwCg0YQHWKZTImaQDVwIBTaMAAqlMskzFJA6gGBpxCAwZQnWKZjEkaQDUw4BQayBBAvXPnjly8cEH27NkjZ8+ckaNxcXLmn3/k8aNH4urqKoUKF5ZKlSvLyy+/LO+9954UdXOT559/3ikUbEzSPhp4pkAlGHfs2CErli+Xw4cPCwH7COB8/PixuLi4mJ6QDV78PUuWLPLcc89J2XLlpEXz5tK4SRNxK1ZMgdmQzK2BZwLUixcvSsyqVTJt6lRlOdlnSCAmp+NQf95LsLCffdZF2rRpLcWKF8/cK/X//OnSHag7YUEJ0C1btthF9QRupbfekoABA6Rx48Z2GdMYJONpIF2BGhUVJV+NHStXr15V7t1eQrDmy5dP/Pz8pLunpzyfK5e9hjbGySAaSDegToUVnTB+vNy5fTtZLj6l+tFi2m7du8vnw4dLLgOsKVVhhj4/XYA6a8YMGTNmjNy7e1fFo5TkxqRP055+HP4/UzC/Pn1k4KBBkj179qddnuTfafUvX74sVy5fkUePH0n+/PnlhRdekBw5cqRpXOPilGvA4UBdtXKlDBk8WK5fv26ypMzec+fJI/fv3VOZviVon+T78Q9kualLOz9nzpySAz93McY9jKVeAPxkA5DGBQXJp59+mmKNcD57QZMtWLBADh86LA8ePJD79++rgbNlzSbZsmVTL0CVqlWkXbt2Ur1GDXVMLxyDx7JmzZri+/MCvhzbtm2DfnBfCFmN999/HwyHm9V4p06dkgP7D8jDhw/Vy5Qndx6p9n41eemll1J1b+0iPvPmzZvl6pWran340lZ8o6K8hXxAz8ik6SYpuNihQKUSe/fqJb/88osJpFT6x1jg0YGBcgx86UoAmYnVOfCn0IA6jxZLv8hcBAJRUxCtWv0GDcTDw0PeBa86Z/ZsCQkONt2D5xXGQs2ePUcqv1052eo4fvw4xgmRDT/8YHqB4t8Ukx+IfxPwO48UK+4mUVHRWMA31GnXrl6T6Ogo2YznKe5WTLy8e8jrr7+e7PtrJx44cEA+btNWbt26ZXrmUYGjpRd0aSmzZs6UYUOHAkjxc6R+vb29ZcyXY1N8X/0FV65ckSaNGgvXUJMOHTpIKMK37DnS5qlSMzGHAZWWaCzAGBkZ+QRAmGFO8KBjv/rKzNrFHT0qU7/9Vs6eO6fIfL61eWFxNbl185ac+O2EnDj5m+SD+/Xy8pJatWub/r4d1qfjJ5/IY92GWoK1UaNGMv3775Plqo8dOybenl5yDGBNrtDCRC9cKG6Y8717dyU0OFQmTpxourx69eoyd948FCwKmY7RMpErpmjcsKWF2rdvH3hi93hLniCjxwRKQECA1dS+mz5dBiPMiX+D4sUTCeXE8LDkPobN82jV69T+QP4hfZjAY7dv316+njQJXiz9Qx+HAXX//v3iDUD9+++/ZpYuT968EhwSIq1atUqTIvUX7969WwH1Hhc2Aaxc/NxIqMaHhUnLli2TvBctlxcWd/3a9bCU5oGGCUQ4HM/3xg/F4z6+vvAMo9WLcOLECWnWuIlcwgJr4uqaRTZu3ihVq1ZVh44cPiJLlixW81TxNH5q44VrjuKFXn766Sf5yKOl3EbiqQktpL+/v9VzROJFHDRw4BOjjzNoUUMnjE+TfgnUBvXqK4uqAbVjx44SFh6eeYD6AAsRAjDSSuppKC5Mrty5JQhuum3btmlSpP7iHTt3SKcOHVWcpi8a8H5NmjaVb6dNk5xJJEDz58+XwQMHgZG48wSouDY/KK9WrVvJK6+8Ijmy51BAffDgPui1a3L06BHx7dlLmjVrqqbCwsUn7T+ROIQz2hxyocy7cctmqVChgjpnZuQMGQC+Vy+dO3eSSd98YwD1KWhwiEX9448/pG2bNnLu7Fmr2xM8zMj7WyxYWlAbGxMr3j28bN6LfQJTQI3VqlnT5i1u3b4lnl27yw+ISzWAcY5V33lHho8YLvXq1bN53Vk8W268dHnhISi8NiYmRgL69lUJCMXHx0cYW7LsS5k/d5707t3bbDwfH28JQdynl4xsUcMjIjJPjMoEqRfcomVJlAAoVKiQTIYF+aBOnbRg0+xaxpd+PXvKyZMnbd5zAF4MS0umDXAs7ph0B/d6Eq5bc3HMmKfAGzRo2CBFc6T3+OXnn5W7zI+Ej5k6wazJQiRevtCLXnx9fSQ4NNQpgNq5c2eJ+Pprcc2S/r0VdreodL9B44Lg9qdYgYa0lDeszBcjR9qV4iBAyNWOxLiWFS9mwa1h3alg3t9SZsAdDx0yVLl0TdxbuMs8hAMpoWGYILH76zheGrK5LljMF5D4Mf7MCqqKcfBMzDFwdKDZFKoBzC1beihWo2LFN6Thhw3l4MGDKpnSx6jBoSFWIOdAc+fMkb6IXfUfZqIlDxkfquilw4cOKaqM61IY3qUFmBLNC/D69evXI1H9TT3rI5zzOhp+GqEUzfnW/aCOWYxKOs4Dc92xfYfs3btXMSMsrNSqXUs6IH7VQpwUvd3JPNnuQGV5tAsaRfb/tM8qXixYsKCshHssWbJkMqeX/NPYHsgF+hnUjmWcWrJUKZmKOPXNN9+0GjAiLBzgGW1WiKD1HTHyi+TfHGfeuHEDfPEQWbxwkbi4xtNsZUqXkVWxMXLo8CF4mJ5y89ZNcL53zcbVMn8e/BAsxbTp0xQ4miIx0wO1t38fNOB8pl5E7flI4S1etEhV/PRA7QnvEhQSLL4+vrJ0yRKTp6DeoxZGS+nSpdUcCN7u3brJmtVr1O+cS7PmzTCH6arFsnat2iag8u9MGvlsfAaVUzKzTKDqiqMpKBj3ZEdbSl7w5CrZ7kBl7FYXbv0GCH69cPIVKlaUjZs2OeRBuHgBsCxLEhZGuzfvWwAvCBOq2rVqWemFFi4czIAmefPllcmTJ0vLjz4yHYs7GifkFW0JqZrKlSrLfVjkfgH9ZOliACMB9qVKlpI169bCsm0Sv15+Sa4J50luOHJGpPz1119WQE3ugvI8Daie3T1l+bJlJqAWQ0vk4qVLpGzZsiagdu7USdatXWcCalMkh5Gw/LaAqrBpAihZEHOGpHTpUjJ/wXwpVz4+ebSn2B2oZ2DZasCd6TlAbcKtWrdWsZ8j3jjeI3DUKJkOa2BpUUlTMaGixdILuV6CawHcvIpP8cfX3IrK2nXrpGjRoqZTmzdpqty6rc8eFnixgGzdvg0FhsLi38dfWVRtAcuWKSsxq2NlPcDar19/NZ6tuD1+7V1UTEuLR6CSbNdb1JQsugbUHl49rCzqwsWLpEyZMiagdoGV1lvU5u7N5TtQXraAyjlmQ1XODbqh7k6fPm01raCgceKLwoS919ghQK0JolsraeqfhIRxBAhjRwkLDGwh1BP/vBdd1uQpU6RFixZmt75586b0QRa+csXKBKC6oNpUDNznJpX0acBqDeu6bes2m0B99dVXZcPGjYrUtwSq5vovXb4EMKxWPOratWvN5lAVpdj4F8gFACqNOXpI3LE4cW/WPMMBtUqVKuKN5K8sgE6grkIYN33qNFMBgw9Wt25dmTNvrupms6ekG1D5hjFxWIZufkd15A8fNkxmzZplblGhLdb+aVHdLYh1JgMElymOS7Coq9esEbpJDage7u6ya+cum0AtUqSI/LBhg02gli5VWlbGrpLXXntNjbVy+Qrp2rWr2fr5I/Yc8+WXZsdYmWrV8iMzoCorbcOk27JcjrKofQP6SiCaizRhA7yHewv59ddfTcfYuLN77x7hC2xPcQhQbbl+KrQUkprtO3c6BKjMUpn9rgXILF0/s9xvYFEbfvihme543ufDhiuGQhPSSeQKP273senYqJGjZD/A4wIG4fTpUygroi8hQVICVFs8qjf6AUInTDCbly0e1bOHJ3Yy6Iokqkwmsjo2VhVWbCVT9nb9vkjSmDBpwhd9yKDBMg9lYk3ntKR79u3N+EA9h3o9SfJrFskHgcqsf+HixQ6hMf7880/xRenwKPoGLIFaEG6cyZQt0j9swkQZCyuhN1b9B/SXkYh3NWHnF0MZZslhqOVHfv+kfyG9gMqSKEujlsL4ujcaxp8FUDmX8aHjZRx6NzSdO41F5aJ6gvL48ccfrRIH0imsVw8aMsSeXkGNFcUyKNoJtYYP7QZ8QcqVL69cf3lwhJYSz6MOUTEXRWtmYVJji3cllRURHmF6tvQCakpq/Y5y/ZYWlVRZMMrh40NCnQ+oBMp4VFomgWC3leEy9osG90fezV7Cxpc+sCq7diGOtPgnCRgPt0fDCpspbAmpJ09WpnRVrQIFCsiEiRNQ529tFSrQ+oaDe9XukxKgzpszV/qgqVsvjiihJgZUhl6L0BTD/1LoIbp26YLwYbXpJU0q67cE6k10tQ1GQ0x0dLTzuX4+8Rpktl5YfDN/pFud+vXrow0tXO3TT6tcu3ZNhn/+uSxbutTmUK6wqIPRr9nXRoscLyAF5IX2vnWYsx7k5WB9R4wYIdVr1hACl8IdCkMx1uxZs1MFVJu1fmTRIXYuoWpA5XNRL1ppmMZh2YrlZgWXz1AWjVkVkyygss2Q7YaakFtu6e4hR9CgowkN0YZNG9PcuG25mHZPpniDv8CvkYpSTbc6C0fQaLEg+0nZJtcAJHdqhWW8yO++i0+gbAxCN14E2ed09MSSWklM2EzSx6+32S4EXpsHPbHs4K8AApvE/t/gN7eBMz2TymSK5Upfbx/VYK1xrW9VrqQqWuzQypU7l6oasYTKbDq1bX76ytQi9MuaurmQKLKXl22PPMb7fIskk01EFD5zUhb1HbQr+vbqKaz00e1v2bxFwieGyZ27d0yqpfeK+DrC1IiT2rVNF6A+RLzHBtswVdr7n7yIJGogXMR///2nPjbBxIfyIixVHVSx2GDMagnrzMzQbVEuHIdv8Clcy97PA+h33QEGQX0XIJF/gYjjsMLEjN9WvKkpg+EKm49nzpiZKCGvnWt5LwKM1TZbPKolPcUm5G5dugo7+E2dWkjdWQ1jHZ67AcLAOJw/f86K8E9JjMrGF/YGjAlEmAIg6StIzBO0sOv33383w8PTgMq/k5NmMYRA/ROGiIUBvXwDBqUTql32FodYVE7yyJEjqnGaVRa2ubVB/yljnKP4IsokgFjPvXHvE90r6SPudbIFVCqGNAy3nVy6dEk1RFCSAikzUHZqNWjY8Kl6Iyc4DDwsS6ApEVrsDQBqwUIFkX33NiuhliheQmLWxJqqXJzrIPS9ztDtetDuxRp6qeKlZPmqFXL9xnXVtKwvmiTW4f89PAobp/Ud/rSaE8ImytYtW8UHTMHFCxfNwKrp11YOoS+h1qheQ/7++28rXjq+xm9dQuWWnLkg+7UYOCV6fNq5DgMqgaUlVdonejzgcgJRPWJiw9jpNipDmsuh6x6B7idb+4K0h4gFZ+iPpIkd8okBVP/A7JqahLp9UtZUfz4Zi/nz5it3SOCqfVrxEzSdpsV7OXLkVFWsHtgZ0KV7N3nw8IEM7D9QFkUvNGGGFpXAY8KlyQUkfv7+feE2N6syswk0WPkqlavIPNTKr1y9YlXrDxw7xqqXlWMS9Nw8adk9NS44SDEZM0ClMTNns5D+Wfgc7KoqgmJEVYRF1C09C12/1pRSR9c99e677woNCsMt/f413pj8cokSJdSuAuYf9i6fqiXAhB32L/cxG/dHiXInXDSFgPly3FdovmgoEWgE2YXjXLjscCes3ixbsUJtSU5Mzp8/r/pOVd09iWlTUcWhOO4kLZGKTq0L//KDbbuxKfGgCjEuALQaErg/qgpitWrVqqndniwQ8H58GTkv7mAlAPg7qzOMB7lTVi/stIpFXMy9XgcPHlLPUh5xcJu2baRp0ybCBHEpXuS7SN7IWnAsegXuJbMU8sZbsZlQ31HFuFqLyeNjyc1qV+v2bdvVmJzv25Xflhq1a0oT9DE8fvRQ3Y8ALI/dCNxrRolaEAXv9Z8CePUaNaVSpUpIlNeozZgHoRuGePSE9evXk+YoT1dE05GjxKFA5aS3bt2qut75tT7KG3AP8/HFFG4NOYQwgAvLxSdAuW0kKbmAMUhDEfiJunwMwO0uE/Ei0IIbkjk04HCgUk1sNSOpziYQAqxps2bSr39/m/2hSak1Kb5UuQdYiqyw2kNBVzEedlRPQeZYeud6inQBKlWyEKQwS23M/AlW8m2kprj/nrEREy7SVUmBKymgqhY0uFw/hBoB/fql+SspzrWMmX+26QZUqpIfdhgxfAQoJWSSCRZQs4T8qMRhMAWuNraLaMuQGFAJ0ldQPBiA7LcdeLzUfqEk8y+38z5hugKVamLJctq0qbIMnfhaNk2gMelh7JkUUJlMMUa17CPg3vhByHz51RRDMqcG0h2oVCNj1e1IsqaA4zyOXkbSNPwQLwGYFFBJGfXEvih+cIJWk5RIN9BDHsg4WTwwJPNq4JkAVVMne0j5YV9uryaVM+KLL5KMUUm1ENwHDvyMTnh3RdkwZDAk82vgmQI186vXeEJ7acAAqr00aYzjUA0YQHWoeo3B7aUBA6j20qQxjkM1YADVoeo1BreXBgyg2kuTxjgO1YABVIeq1xjcXhowgGovTRrjOFQDBlAdql5jcHtpwACqvTRpjONQDRhAdah6jcHtpQEDqPbSpDGOQzVgANWh6jUGt5cG/g9kzp7ppxA37gAAAABJRU5ErkJggg==;" vertex="1" parent="1">
          <mxGeometry x="70" y="970" width="170" height="63" as="geometry" />
        </mxCell>
        <mxCell id="gbquePx31MklGb_rPzh0-45" value="&lt;div&gt;GitHub&lt;/div&gt;&lt;div&gt;Actions&lt;br&gt;&lt;/div&gt;" style="sketch=0;outlineConnect=0;fontColor=#232F3E;gradientColor=none;fillColor=#232F3D;strokeColor=none;dashed=0;verticalLabelPosition=bottom;verticalAlign=top;align=center;html=1;fontSize=12;fontStyle=0;aspect=fixed;pointerEvents=1;shape=mxgraph.aws4.gear;" vertex="1" parent="1">
          <mxGeometry x="270" y="962.5" width="78" height="78" as="geometry" />
        </mxCell>
        <mxCell id="gbquePx31MklGb_rPzh0-46" value="App Compiler" style="sketch=0;outlineConnect=0;fontColor=#232F3E;gradientColor=none;fillColor=#232F3D;strokeColor=none;dashed=0;verticalLabelPosition=bottom;verticalAlign=top;align=center;html=1;fontSize=12;fontStyle=0;aspect=fixed;pointerEvents=1;shape=mxgraph.aws4.disk;" vertex="1" parent="1">
          <mxGeometry x="414" y="860" width="60" height="60" as="geometry" />
        </mxCell>
        <mxCell id="gbquePx31MklGb_rPzh0-48" value="App Web" style="sketch=0;outlineConnect=0;fontColor=#232F3E;gradientColor=none;fillColor=#232F3D;strokeColor=none;dashed=0;verticalLabelPosition=bottom;verticalAlign=top;align=center;html=1;fontSize=12;fontStyle=0;aspect=fixed;pointerEvents=1;shape=mxgraph.aws4.globe;" vertex="1" parent="1">
          <mxGeometry x="414" y="971.5" width="60" height="60" as="geometry" />
        </mxCell>
        <mxCell id="gbquePx31MklGb_rPzh0-49" value="" style="endArrow=classic;html=1;rounded=0;" edge="1" parent="1" source="gbquePx31MklGb_rPzh0-45" target="gbquePx31MklGb_rPzh0-46">
          <mxGeometry width="50" height="50" relative="1" as="geometry">
            <mxPoint x="300" y="950" as="sourcePoint" />
            <mxPoint x="350" y="900" as="targetPoint" />
            <Array as="points">
              <mxPoint x="310" y="890" />
            </Array>
          </mxGeometry>
        </mxCell>
        <mxCell id="gbquePx31MklGb_rPzh0-50" value="" style="endArrow=classic;html=1;rounded=0;" edge="1" parent="1" source="gbquePx31MklGb_rPzh0-45" target="gbquePx31MklGb_rPzh0-48">
          <mxGeometry width="50" height="50" relative="1" as="geometry">
            <mxPoint x="350" y="1110" as="sourcePoint" />
            <mxPoint x="400" y="1060" as="targetPoint" />
          </mxGeometry>
        </mxCell>
      </root>
    </mxGraphModel>
  </diagram>
</mxfile>
